<svg xmlns="http://www.w3.org/2000/svg" width="19.363" height="24" viewBox="0 0 19.363 24">
  <g id="Group_6" data-name="Group 6" transform="translate(-53.346 -8)">
    <path id="Path_16" data-name="Path 16" d="M55.124,22.369c0-1.618-.006-3.235.005-4.853a.621.621,0,0,0-.387-.67,2.791,2.791,0,0,1,.76-5.133,16.636,16.636,0,0,1,2.689-.058c.355,0,.473-.1.45-.47A3,3,0,0,1,59.625,8.6a2.215,2.215,0,0,1,1.49-.593c1.239-.007,2.478-.014,3.717,0a2.676,2.676,0,0,1,2.582,2.464,3.131,3.131,0,0,1,.025.713c-.05.4.11.479.463.472a20.809,20.809,0,0,1,2.464.031,2.731,2.731,0,0,1,2.308,2.289A2.768,2.768,0,0,1,71.228,16.9c-.243.114-.266.265-.266.492,0,3.222.009,6.444,0,9.666A4.762,4.762,0,0,1,69.2,31a4.592,4.592,0,0,1-2.905.979c-2.174.019-4.35.024-6.524,0a4.534,4.534,0,0,1-4.537-3.58,5.515,5.515,0,0,1-.107-1.3C55.12,25.525,55.124,23.947,55.124,22.369Zm7.943-5.152c-1.935,0-3.87.006-5.8-.007-.317,0-.411.1-.406.429.017,1.113.007,2.227.007,3.341,0,2.069-.009,4.137,0,6.206a2.708,2.708,0,0,0,2.677,2.921c2.327.022,4.654.017,6.98,0a2.568,2.568,0,0,0,2.134-1.1,3.136,3.136,0,0,0,.523-1.949q-.007-4.714.005-9.428c0-.323-.068-.425-.391-.422C66.886,17.226,64.976,17.218,63.067,17.218ZM63.047,13.5H56.3a1.535,1.535,0,0,0-.525.055.941.941,0,0,0-.631.969.814.814,0,0,0,.753.8,3.25,3.25,0,0,0,.491.028q6.633,0,13.267,0a3.225,3.225,0,0,0,.6-.043.863.863,0,0,0,.6-1.218.984.984,0,0,0-1.024-.591Q66.44,13.5,63.047,13.5Zm-.06-1.854c.657,0,1.314.008,1.971,0,.779-.012.705.179.7-.774a.912.912,0,0,0-.99-1.034q-1.629-.022-3.259,0c-.665.009-.99.378-1,1.07a2.853,2.853,0,0,1,0,.318c-.041.318.059.442.389.43C61.521,11.628,62.255,11.646,62.987,11.646Z" transform="translate(0 0)" fill="#949494"/>
    <path id="Path_17" data-name="Path 17" d="M65.88,31.457c0,.76,0,1.52,0,2.28,0,.549-.293.877-.771.883a.79.79,0,0,1-.809-.887q0-2.263,0-4.527a.8.8,0,0,1,.8-.9c.478,0,.782.349.784.909C65.882,29.959,65.88,30.708,65.88,31.457Z" transform="translate(-4.727 -7.566)" fill="#949494"/>
    <path id="Path_18" data-name="Path 18" d="M73.7,31.44c0-.76,0-1.52,0-2.28a.792.792,0,1,1,1.579-.006q.007,2.315,0,4.629a.778.778,0,0,1-.79.838.765.765,0,0,1-.787-.832C73.692,33.006,73.7,32.224,73.7,31.44Z" transform="translate(-8.783 -7.566)" fill="#949494"/>
  </g>
</svg>
